<svg width="1675" height="2503" viewBox="0 0 1675 2503" fill="none" xmlns="http://www.w3.org/2000/svg">
<path d="M3406.2 65.6421L2082.86 2329.88C2013.19 2449.1 1882.59 2518.75 1745.85 2499.53C1299.1 2436.76 331.615 2230.93 258.917 1620.64C129.094 530.776 1624.97 537.617 2506.68 206.684C2653.98 151.398 3334.07 -123.08 3406.2 65.6367C3406.2 65.6384 3406.2 65.6404 3406.2 65.6421Z" fill="#FFF5F3"/>
<g filter="url(#filter0_d)">
<rect x="216" y="735" width="1087" height="1153" rx="40" fill="white"/>
</g>
<rect x="281" y="821" width="900" height="105" rx="20" fill="#CCE1F2"/>
<g filter="url(#filter1_d)">
<rect x="730" y="1233" width="777" height="437" rx="20" fill="white"/>
</g>
<g filter="url(#filter2_d)">
<rect x="40" y="547" width="274" height="274" rx="50" fill="white"/>
</g>
<g filter="url(#filter3_d)">
<rect x="730" y="1806" width="777" height="437" rx="20" fill="white"/>
</g>
<rect x="289" y="1019" width="367" height="773" rx="20" fill="#FFC2D7"/>
<rect x="328" y="1218" width="289" height="45" rx="22.5" fill="#84CEFF"/>
<rect x="328" y="852" width="402" height="31" rx="15.5" fill="#84CEFF"/>
<rect x="785" y="1315" width="518" height="45" rx="22.5" fill="#FFB41D"/>
<rect x="785" y="1888" width="518" height="45" rx="22.5" fill="#FFB41D"/>
<rect x="785" y="1558" width="634" height="22" rx="11" fill="#C9C8CE"/>
<rect x="785" y="1558" width="634" height="22" rx="11" fill="#C9C8CE"/>
<rect x="785" y="1558" width="634" height="22" rx="11" fill="#C9C8CE"/>
<rect x="785" y="2131" width="634" height="22" rx="11" fill="#C9C8CE"/>
<rect x="785" y="2131" width="634" height="22" rx="11" fill="#C9C8CE"/>
<rect x="785" y="2131" width="634" height="22" rx="11" fill="#C9C8CE"/>
<rect x="785" y="1496" width="634" height="22" rx="11" fill="#C9C8CE"/>
<rect x="785" y="1496" width="634" height="22" rx="11" fill="#C9C8CE"/>
<rect x="785" y="1496" width="634" height="22" rx="11" fill="#C9C8CE"/>
<rect x="785" y="2069" width="634" height="22" rx="11" fill="#C9C8CE"/>
<rect x="785" y="2069" width="634" height="22" rx="11" fill="#C9C8CE"/>
<rect x="785" y="2069" width="634" height="22" rx="11" fill="#C9C8CE"/>
<rect x="785" y="1429" width="634" height="22" rx="11" fill="#C9C8CE"/>
<rect x="785" y="1429" width="634" height="22" rx="11" fill="#C9C8CE"/>
<rect x="785" y="1429" width="634" height="22" rx="11" fill="#C9C8CE"/>
<rect x="785" y="2002" width="634" height="22" rx="11" fill="#C9C8CE"/>
<rect x="785" y="2002" width="634" height="22" rx="11" fill="#C9C8CE"/>
<rect x="785" y="2002" width="634" height="22" rx="11" fill="#C9C8CE"/>
<rect x="328" y="1103" width="190" height="45" rx="22.5" fill="white"/>
<rect x="328" y="1333" width="289" height="45" rx="22.5" fill="#84CEFF"/>
<rect x="328" y="1451" width="289" height="45" rx="22.5" fill="#84CEFF"/>
<rect x="328" y="1569" width="289" height="45" rx="22.5" fill="#84CEFF"/>
<rect x="328" y="1687" width="289" height="45" rx="22.5" fill="#84CEFF"/>
<circle cx="588.5" cy="1127.5" r="28.5" fill="white"/>
<circle cx="1069" cy="880" r="13" fill="white"/>
<circle cx="1110" cy="880" r="13" fill="white"/>
<circle cx="1152" cy="880" r="13" fill="white"/>
<g filter="url(#filter4_d)">
<rect x="472" y="2027" width="274" height="274" rx="50" fill="white"/>
</g>
<defs>
<filter id="filter0_d" x="166" y="689" width="1187" height="1253" filterUnits="userSpaceOnUse" color-interpolation-filters="sRGB">
<feFlood flood-opacity="0" result="BackgroundImageFix"/>
<feColorMatrix in="SourceAlpha" type="matrix" values="0 0 0 0 0 0 0 0 0 0 0 0 0 0 0 0 0 0 127 0"/>
<feOffset dy="4"/>
<feGaussianBlur stdDeviation="25"/>
<feColorMatrix type="matrix" values="0 0 0 0 0 0 0 0 0 0 0 0 0 0 0 0 0 0 0.25 0"/>
<feBlend mode="normal" in2="BackgroundImageFix" result="effect1_dropShadow"/>
<feBlend mode="normal" in="SourceGraphic" in2="effect1_dropShadow" result="shape"/>
</filter>
<filter id="filter1_d" x="726" y="1233" width="785" height="445" filterUnits="userSpaceOnUse" color-interpolation-filters="sRGB">
<feFlood flood-opacity="0" result="BackgroundImageFix"/>
<feColorMatrix in="SourceAlpha" type="matrix" values="0 0 0 0 0 0 0 0 0 0 0 0 0 0 0 0 0 0 127 0"/>
<feOffset dy="4"/>
<feGaussianBlur stdDeviation="2"/>
<feColorMatrix type="matrix" values="0 0 0 0 0 0 0 0 0 0 0 0 0 0 0 0 0 0 0.25 0"/>
<feBlend mode="normal" in2="BackgroundImageFix" result="effect1_dropShadow"/>
<feBlend mode="normal" in="SourceGraphic" in2="effect1_dropShadow" result="shape"/>
</filter>
<filter id="filter2_d" x="0" y="507" width="374" height="374" filterUnits="userSpaceOnUse" color-interpolation-filters="sRGB">
<feFlood flood-opacity="0" result="BackgroundImageFix"/>
<feColorMatrix in="SourceAlpha" type="matrix" values="0 0 0 0 0 0 0 0 0 0 0 0 0 0 0 0 0 0 127 0"/>
<feOffset dx="10" dy="10"/>
<feGaussianBlur stdDeviation="25"/>
<feColorMatrix type="matrix" values="0 0 0 0 0 0 0 0 0 0 0 0 0 0 0 0 0 0 0.25 0"/>
<feBlend mode="normal" in2="BackgroundImageFix" result="effect1_dropShadow"/>
<feBlend mode="normal" in="SourceGraphic" in2="effect1_dropShadow" result="shape"/>
</filter>
<filter id="filter3_d" x="726" y="1806" width="785" height="445" filterUnits="userSpaceOnUse" color-interpolation-filters="sRGB">
<feFlood flood-opacity="0" result="BackgroundImageFix"/>
<feColorMatrix in="SourceAlpha" type="matrix" values="0 0 0 0 0 0 0 0 0 0 0 0 0 0 0 0 0 0 127 0"/>
<feOffset dy="4"/>
<feGaussianBlur stdDeviation="2"/>
<feColorMatrix type="matrix" values="0 0 0 0 0 0 0 0 0 0 0 0 0 0 0 0 0 0 0.25 0"/>
<feBlend mode="normal" in2="BackgroundImageFix" result="effect1_dropShadow"/>
<feBlend mode="normal" in="SourceGraphic" in2="effect1_dropShadow" result="shape"/>
</filter>
<filter id="filter4_d" x="432" y="1987" width="374" height="374" filterUnits="userSpaceOnUse" color-interpolation-filters="sRGB">
<feFlood flood-opacity="0" result="BackgroundImageFix"/>
<feColorMatrix in="SourceAlpha" type="matrix" values="0 0 0 0 0 0 0 0 0 0 0 0 0 0 0 0 0 0 127 0"/>
<feOffset dx="10" dy="10"/>
<feGaussianBlur stdDeviation="25"/>
<feColorMatrix type="matrix" values="0 0 0 0 0 0 0 0 0 0 0 0 0 0 0 0 0 0 0.25 0"/>
<feBlend mode="normal" in2="BackgroundImageFix" result="effect1_dropShadow"/>
<feBlend mode="normal" in="SourceGraphic" in2="effect1_dropShadow" result="shape"/>
</filter>
</defs>
</svg>
