<svg width="1275" height="2288" viewBox="0 0 1275 2288" fill="none" xmlns="http://www.w3.org/2000/svg">
<path d="M-797.375 2272.23C-797.376 2272.23 -797.376 2272.23 -797.376 2272.23L-800.108 473.3C-800.346 316.605 -700.671 177.6 -548.993 138.268C-119.225 26.8217 743.887 -138.734 1093.5 213.726C1743.29 868.806 474.979 1368.88 -106.628 1878.44C-203.792 1963.56 -642.873 2368.92 -797.374 2272.23C-797.375 2272.23 -797.375 2272.23 -797.375 2272.23Z" fill="#F1FAFF"/>
<path d="M1127.19 1369.1C1182.02 1445.27 1121.77 1504.51 1027.97 1507.75L797.026 1515.72C532.59 1524.85 366.407 1104.67 631.001 1104.67C852.233 1104.67 785 1405.5 948.233 1306.13C1019.38 1262.81 1084.57 1309.9 1127.19 1369.1Z" fill="#FFC2D7"/>
</svg>
